<?xml version="1.0" encoding="utf-8"?>
<!-- Generator: Adobe Illustrator 23.0.2, SVG Export Plug-In . SVG Version: 6.00 Build 0)  -->
<svg version="1.1" id="Layer_1" xmlns="http://www.w3.org/2000/svg" xmlns:xlink="http://www.w3.org/1999/xlink" x="0px" y="0px"
	 viewBox="0 0 600 235" style="enable-background:new 0 0 593 235;" xml:space="preserve">
<g>
	<g>
		<path fill="#0D247C" d="M105.23,98.57c-0.02,8.82-3.4,17.85-8.93,25.11l4.07,5.39l-12.03,10.16l-3.51-5.12
			c-3.93,2.37-8.18,4-12.66,4.63c-16.5,2.32-27.85-8.01-27.83-23.49c0.03-18.76,14.24-37.53,33.07-40.17
			C93.91,72.76,105.26,83.1,105.23,98.57z M85.19,110.29c0.81-2.27,1.21-4.66,1.21-6.91c0.01-6.74-3.58-11.25-10.31-10.31
			c-8.01,1.13-13.07,10.14-13.09,18.09c-0.01,6.74,3.58,11.25,10.31,10.31c0.32-0.05,0.64-0.09,0.96-0.14l-5.11-6.71l12.03-10.16
			L85.19,110.29"/>
		<path fill="#0D247C" d="M172.25,62.96l-8.96,36.87c-2.01,8.32-4.9,14.61-8.84,19.39c-5.3,6.45-13.31,9.82-22.2,11.07
			c-15.78,2.22-24.26-4.72-24.23-18.38c0.01-3.11,0.41-6.54,1.22-9.94l7.59-31.23l19.06-2.68l-7.91,32.57
			c-0.4,1.79-0.65,3.46-0.65,4.85c-0.01,5.01,2.71,7.23,7.68,6.53c2.32-0.33,4.49-1.5,6.01-3.35c1.69-2.05,2.81-4.54,4.02-9.38
			l8.15-33.65L172.25,62.96z"/>
		<polygon fill="#0D247C" points="196.77,59.52 181.59,122.16 162.85,124.79 178.02,62.15 		"/>
		<polygon fill="#0D247C" points="242.1,53.15 231.29,97.88 256.84,94.29 252.49,112.19 208.19,118.42 223.36,55.78 		"/>
		<path fill="#0D247C" d="M286.64,46.89l-4.36,18.07c-2.74,11.02-7.72,17.59-21.98,20.38l-0.47-7.11c6.01-1.62,9.38-4.6,10.51-9.17
			l-7.29,1.02l5-20.58L286.64,46.89z"/>
		<path fill="#0D247C" d="M390.37,31.88l8.38,59.76l-19.95,2.8l-0.95-7.99l-19.63,2.76l-4.89,8.81l-20.43,2.87l38.88-66.4L390.37,31.88
			z M366.59,73.68l10.25-1.44l-1.49-14.48L366.59,73.68"/>
		<polygon fill="#0D247C" points="346.39,38.49 331.22,101.13 312.48,103.76 317.88,81.31 300.75,83.71 295.33,106.17 276.6,108.8 
			291.77,46.17 310.51,43.53 305.1,65.64 322.24,63.23 327.65,41.12 		"/>
		<path fill="#0D247C" d="M477.43,27.85c4.16,3.91,6.07,9.52,6.05,16.87c-0.02,9.08-3.24,17.83-9.26,25.16
			c-6.74,8.21-16.44,13.46-29.42,15.28l-24.34,3.42l15.16-62.64l19.87-2.79C466.39,21.63,473.19,23.87,477.43,27.85z M460.39,60.41
			c2.33-2.83,4.02-7.13,4.02-10.85c0.01-3.29-0.87-5.32-2.31-6.68c-1.76-1.65-4.56-2.38-9.05-1.75l-3.12,0.44l-6.3,26.12l3.28-0.46
			C452.61,66.43,457.5,63.93,460.39,60.41"/>
		<polygon fill="#0D247C" points="570.12,7.05 565.85,24.76 549.34,27.08 538.45,72 519.71,74.64 530.6,29.72 514.1,32.03 
			518.38,14.32 		"/>
		<polygon fill="#0D247C" points="514.29,14.89 499.12,77.53 480.37,80.17 495.55,17.53 		"/>
		<path fill="#0D247C" d="M164.27,151.23c10.01-1.41,18.9,0.8,24.98,5.57l-10.76,15.34c-4.24-3.12-10.24-5.3-16.17-4.47
			c-2.4,0.34-4.09,1.27-4.09,2.99c0,1.82,1.2,1.99,8.96,4.01c9.53,2.46,15.61,5.93,15.59,15.18c-0.02,12.19-9.33,23.01-25.43,25.27
			c-11.13,1.56-20.81-1.4-27.61-7.1l10.76-15.34c6.4,4.89,12.95,6.74,18.88,5.9c2.4-0.34,4.09-1.53,4.09-3.25
			c0-1.9-1.04-2.36-9.2-4.5c-10.4-2.69-15.28-5.98-15.26-14.88C139.03,164.29,148.97,153.38,164.27,151.23z"/>
		<polygon fill="#0D247C" points="136.66,141.19 120.47,155.14 107.33,156.99 119.21,138.72 		"/>
		<polygon fill="#0D247C" points="134.68,173.19 105.29,177.32 103.76,183.68 131.15,179.83 127.51,194.95 100.13,198.8 98.43,205.6 
			128.22,201.42 124.11,218.59 75.89,225.37 91.06,162.73 138.88,156.01 		"/>
		<polygon fill="#0D247C" points="84.97,163.59 69.8,226.22 51.14,228.85 58.64,197.8 40.34,221.89 40.02,221.94 32.53,201.47 
			25.03,232.52 6.68,235.09 21.85,172.46 40.36,169.86 47.05,190.18 64.38,166.48 		"/>
		<path fill="#0D247C" d="M324.12,149.08c-0.02,9.42-4.6,18.19-15.66,23.46l7.73,19.05l-20.19,2.84l-6.22-16.41l-4.65,0.65l-4.36,17.9
			l-18.74,2.63l15.17-62.64l21.87-3.07c10.33-1.45,16.9,0.05,20.65,3.58C322.86,140.01,324.13,144.32,324.12,149.08z M295.51,162.78
			c6.25-0.88,9.54-4.45,9.55-8.26c0-1.21-0.4-2.28-1.2-3.03c-1.04-0.98-2.88-1.32-5.52-0.95l-6.65,0.93l-2.99,12.26L295.51,162.78"
			/>
		<path fill="#0D247C" d="M245.1,139.78c10.57-1.49,19.62,2.17,23.45,6.73l-11.72,14.61c-3.2-2.75-8-4.32-12.97-3.62
			c-10.65,1.5-17,10.25-17.01,20.02c-0.01,7.52,5.03,10.53,10.87,9.71c2-0.28,3.61-0.85,4.89-1.64l1.85-6.74l-9.21,1.29l3.07-13.4
			l27-3.79l-8.07,31.99c-5.53,4.32-13.47,8.12-21.56,9.25c-13.94,1.96-27.69-4.06-27.66-23.08
			C208.07,161.32,222.51,142.96,245.1,139.78z"/>
		<path fill="#0D247C" d="M540.52,99.13l8.38,59.76l-19.95,2.8l-0.95-7.99l-19.63,2.76l-4.9,8.81l-20.43,2.87l38.88-66.4L540.52,99.13z
			 M516.74,140.94l10.25-1.44l-1.49-14.48L516.74,140.94"/>
		<path fill="#0D247C" d="M468.83,108.43c10.01-1.41,18.9,0.8,24.98,5.57l-10.76,15.34c-4.24-3.12-10.24-5.3-16.17-4.47
			c-2.4,0.34-4.09,1.27-4.09,2.99c0,1.82,1.2,1.99,8.96,4.01c9.53,2.46,15.61,5.93,15.59,15.18c-0.02,12.19-9.33,23.01-25.43,25.27
			c-11.13,1.56-20.82-1.4-27.62-7.1l10.76-15.34c6.4,4.89,12.96,6.74,18.89,5.9c2.4-0.34,4.09-1.53,4.09-3.25
			c0-1.9-1.04-2.36-9.2-4.5c-10.41-2.69-15.28-5.98-15.27-14.88C443.58,121.48,453.53,110.58,468.83,108.43z"/>
		<path fill="#0D247C" d="M416.52,115.78c10.01-1.41,18.9,0.8,24.98,5.57l-10.76,15.34c-4.24-3.12-10.24-5.3-16.17-4.47
			c-2.4,0.34-4.09,1.27-4.09,2.99c0,1.82,1.2,1.99,8.96,4.01c9.53,2.46,15.61,5.93,15.59,15.18c-0.02,12.19-9.33,23.01-25.43,25.27
			c-11.13,1.56-20.82-1.4-27.62-7.1l10.76-15.34c6.4,4.89,12.96,6.74,18.89,5.9c2.4-0.34,4.09-1.53,4.09-3.25
			c0-1.9-1.04-2.36-9.2-4.5c-10.41-2.69-15.28-5.98-15.27-14.88C391.27,128.84,401.22,117.93,416.52,115.78z"/>
		<path fill="#0D247C" d="M358.93,123.87c16.5-2.32,27.85,8.01,27.83,23.49c-0.03,18.76-14.24,37.53-33.07,40.17
			c-16.5,2.32-27.85-8.01-27.83-23.49C325.89,145.28,340.1,126.52,358.93,123.87z M355,169.54c7.85-1.1,12.91-10.11,12.93-17.72
			c0.01-6.4-3.58-10.91-10.31-9.96c-7.85,1.1-12.91,10.11-12.93,17.72C344.67,165.98,348.27,170.49,355,169.54"/>
		<path fill="#0D247C" d="M578.09,93.33c11.21-1.58,18.41,3.9,18.39,13.23c-0.02,9.34-5.56,18.24-19.82,22.75l-2.5,7.18l-11.05,1.55
			l1.23-15.21l1.04-1.1c8.81-2.19,13.06-4.77,13.07-8.15c0-1.9-1.28-3.02-4-2.64c-2.88,0.41-6.09,1.89-10.26,5.68l-6.06-13.76
			C563.51,97.89,570.4,94.41,578.09,93.33z"/>
		<polygon fill="#0D247C" points="554.11,158.16 558.06,142.04 576.64,139.43 572.69,155.55 		"/>
	</g>
	<g>
		<g>
			<path fill="#CF1295" d="M98.23,91.57c-0.02,8.82-3.4,17.85-8.93,25.11l4.07,5.39l-12.03,10.16l-3.51-5.12
				c-3.93,2.37-8.18,4-12.66,4.63c-16.5,2.32-27.85-8.01-27.83-23.49c0.03-18.76,14.24-37.53,33.07-40.17
				C86.91,65.76,98.26,76.1,98.23,91.57z M78.19,103.29c0.81-2.27,1.21-4.66,1.21-6.91c0.01-6.74-3.58-11.25-10.31-10.31
				c-8.01,1.13-13.07,10.14-13.09,18.09c-0.01,6.74,3.58,11.25,10.31,10.31c0.32-0.05,0.64-0.09,0.96-0.14l-5.11-6.71L74.2,97.46
				L78.19,103.29"/>
		</g>
		<g>
			<path fill="#CF1295" d="M165.25,55.96l-8.96,36.87c-2.01,8.32-4.9,14.61-8.84,19.39c-5.3,6.45-13.31,9.82-22.2,11.07
				c-15.78,2.22-24.26-4.72-24.23-18.38c0.01-3.11,0.41-6.54,1.22-9.94l7.59-31.23l19.06-2.68l-7.91,32.57
				c-0.4,1.79-0.65,3.46-0.65,4.85c-0.01,5.01,2.71,7.23,7.68,6.53c2.32-0.33,4.49-1.5,6.01-3.35c1.69-2.05,2.81-4.54,4.02-9.38
				l8.15-33.65L165.25,55.96z"/>
		</g>
		<g>
			<polygon fill="#CF1295" points="189.77,52.52 174.59,115.16 155.85,117.79 171.02,55.15 			"/>
		</g>
		<g>
			<polygon fill="#CF1295" points="235.1,46.15 224.29,90.88 249.84,87.29 245.49,105.19 201.19,111.42 216.36,48.78 			"/>
		</g>
		<g>
			<path fill="#CF1295" d="M279.64,39.89l-4.36,18.07c-2.74,11.02-7.72,17.59-21.98,20.38l-0.47-7.11c6.01-1.62,9.38-4.6,10.51-9.17
				l-7.29,1.02l5-20.58L279.64,39.89z"/>
		</g>
		<g>
			<path fill="#CF1295" d="M383.37,24.88l8.38,59.76l-19.95,2.8l-0.95-7.99l-19.63,2.76l-4.89,8.81l-20.43,2.87l38.88-66.4
				L383.37,24.88z M359.59,66.68l10.25-1.44l-1.49-14.48L359.59,66.68"/>
		</g>
		<g>
			<polygon fill="#CF1295" points="339.39,31.49 324.22,94.13 305.48,96.76 310.88,74.31 293.75,76.71 288.33,99.17 269.6,101.8 
				284.77,39.17 303.51,36.53 298.1,58.64 315.24,56.23 320.65,34.12 			"/>
		</g>
		<g>
			<path fill="#CF1295" d="M470.43,20.85c4.16,3.91,6.07,9.52,6.05,16.87c-0.02,9.08-3.24,17.83-9.26,25.16
				c-6.74,8.21-16.44,13.46-29.42,15.28l-24.34,3.42l15.16-62.64l19.87-2.79C459.39,14.63,466.19,16.87,470.43,20.85z M453.39,53.41
				c2.33-2.83,4.02-7.13,4.02-10.85c0.01-3.29-0.87-5.32-2.31-6.68c-1.76-1.65-4.56-2.38-9.05-1.75l-3.12,0.44l-6.3,26.12l3.28-0.46
				C445.61,59.43,450.5,56.93,453.39,53.41"/>
		</g>
		<g>
			<polygon fill="#CF1295" points="563.12,0.05 558.85,17.76 542.34,20.08 531.45,65 512.71,67.64 523.6,22.72 507.1,25.03 
				511.38,7.32 			"/>
		</g>
		<g>
			<polygon fill="#CF1295" points="507.29,7.89 492.12,70.53 473.37,73.17 488.55,10.53 			"/>
		</g>
		<g class="st2">
			<g>
				<path fill="#CF1295" d="M157.27,144.23c10.01-1.41,18.9,0.8,24.98,5.57l-10.76,15.34c-4.24-3.12-10.24-5.3-16.17-4.47
					c-2.4,0.34-4.09,1.27-4.09,2.99c0,1.82,1.2,1.99,8.96,4.01c9.53,2.46,15.61,5.93,15.59,15.18
					c-0.02,12.19-9.33,23.01-25.43,25.27c-11.13,1.56-20.81-1.4-27.61-7.1l10.76-15.34c6.4,4.89,12.95,6.74,18.88,5.9
					c2.4-0.34,4.09-1.53,4.09-3.25c0-1.9-1.04-2.36-9.2-4.5c-10.4-2.69-15.28-5.98-15.26-14.88
					C132.03,157.29,141.97,146.38,157.27,144.23z"/>
			</g>
			<g>
				<polygon fill="#CF1295" points="129.66,134.19 113.47,148.14 100.33,149.99 112.21,131.72 				"/>
			</g>
			<g>
				<polygon fill="#CF1295" points="127.68,166.19 98.29,170.32 96.76,176.68 124.15,172.83 120.51,187.95 93.13,191.8 91.43,198.6 
					121.22,194.42 117.11,211.59 68.89,218.37 84.06,155.73 131.88,149.01 				"/>
			</g>
		</g>
		<g>
			<polygon fill="#CF1295" points="77.97,156.59 62.8,219.22 44.14,221.85 51.64,190.8 33.34,214.89 33.02,214.94 25.53,194.47 
				18.03,225.52 -0.32,228.09 14.85,165.46 33.36,162.86 40.05,183.18 57.38,159.48 			"/>
		</g>
		<g>
			<path fill="#CF1295" d="M317.12,142.08c-0.02,9.42-4.6,18.19-15.66,23.46l7.73,19.05l-20.19,2.84l-6.22-16.41l-4.65,0.65l-4.36,17.9
				l-18.74,2.63l15.17-62.64l21.87-3.07c10.33-1.45,16.9,0.05,20.65,3.58C315.86,133.01,317.13,137.32,317.12,142.08z
				 M288.51,155.78c6.25-0.88,9.54-4.45,9.55-8.26c0-1.21-0.4-2.28-1.2-3.03c-1.04-0.98-2.88-1.32-5.52-0.95l-6.65,0.93l-2.99,12.26
				L288.51,155.78"/>
		</g>
		<g>
			<path fill="#CF1295" d="M238.1,132.78c10.57-1.49,19.62,2.17,23.45,6.73l-11.72,14.61c-3.2-2.75-8-4.32-12.97-3.62
				c-10.65,1.5-17,10.25-17.01,20.02c-0.01,7.52,5.03,10.53,10.87,9.71c2-0.28,3.61-0.85,4.89-1.64l1.85-6.74l-9.21,1.29l3.07-13.4
				l27-3.79l-8.07,31.99c-5.53,4.32-13.47,8.12-21.56,9.25c-13.94,1.96-27.69-4.06-27.66-23.08
				C201.07,154.32,215.51,135.96,238.1,132.78z"/>
		</g>
		<g class="st2">
			<g>
				<path fill="#CF1295" d="M533.52,92.13l8.38,59.76l-19.95,2.8l-0.95-7.99l-19.63,2.76l-4.9,8.81l-20.43,2.87l38.88-66.4
					L533.52,92.13z M509.74,133.94l10.25-1.44l-1.49-14.48L509.74,133.94"/>
			</g>
			<g>
				<path fill="#CF1295" d="M461.83,101.43c10.01-1.41,18.9,0.8,24.98,5.57l-10.76,15.34c-4.24-3.12-10.24-5.3-16.17-4.47
					c-2.4,0.34-4.09,1.27-4.09,2.99c0,1.82,1.2,1.99,8.96,4.01c9.53,2.46,15.61,5.93,15.59,15.18
					c-0.02,12.19-9.33,23.01-25.43,25.27c-11.13,1.56-20.82-1.4-27.62-7.1l10.76-15.34c6.4,4.89,12.96,6.74,18.89,5.9
					c2.4-0.34,4.09-1.53,4.09-3.25c0-1.9-1.04-2.36-9.2-4.5c-10.41-2.69-15.28-5.98-15.27-14.88
					C436.58,114.48,446.53,103.58,461.83,101.43z"/>
			</g>
		</g>
		<g>
			<path fill="#CF1295" d="M409.52,108.78c10.01-1.41,18.9,0.8,24.98,5.57l-10.76,15.34c-4.24-3.12-10.24-5.3-16.17-4.47
				c-2.4,0.34-4.09,1.27-4.09,2.99c0,1.82,1.2,1.99,8.96,4.01c9.53,2.46,15.61,5.93,15.59,15.18c-0.02,12.19-9.33,23.01-25.43,25.27
				c-11.13,1.56-20.82-1.4-27.62-7.1l10.76-15.34c6.4,4.89,12.96,6.74,18.89,5.9c2.4-0.34,4.09-1.53,4.09-3.25
				c0-1.9-1.04-2.36-9.2-4.5c-10.41-2.69-15.28-5.98-15.27-14.88C384.27,121.84,394.22,110.93,409.52,108.78z"/>
		</g>
		<g>
			<path fill="#CF1295" d="M351.93,116.87c16.5-2.32,27.85,8.01,27.83,23.49c-0.03,18.76-14.24,37.53-33.07,40.17
				c-16.5,2.32-27.85-8.01-27.83-23.49C318.89,138.28,333.1,119.52,351.93,116.87z M348,162.54c7.85-1.1,12.91-10.11,12.93-17.72
				c0.01-6.4-3.58-10.91-10.31-9.96c-7.85,1.1-12.91,10.11-12.93,17.72C337.67,158.98,341.27,163.49,348,162.54"/>
		</g>
		<g>
			<path fill="#CF1295" d="M571.09,86.33c11.21-1.58,18.41,3.9,18.39,13.23c-0.02,9.34-5.56,18.24-19.82,22.75l-2.5,7.18l-11.05,1.55
				l1.23-15.21l1.04-1.1c8.81-2.19,13.06-4.77,13.07-8.15c0-1.9-1.28-3.02-4-2.64c-2.88,0.41-6.09,1.89-10.26,5.68l-6.06-13.76
				C556.51,90.89,563.4,87.41,571.09,86.33z"/>
		</g>
		<g>
			<polygon fill="#CF1295" points="547.11,151.16 551.06,135.04 569.64,132.43 565.69,148.55 			"/>
		</g>
	</g>
</g>
</svg>
