<?xml version="1.0" encoding="utf-8"?>
<!-- Generator: Adobe Illustrator 23.0.2, SVG Export Plug-In . SVG Version: 6.00 Build 0)  -->
<svg version="1.1" id="Layer_1" xmlns="http://www.w3.org/2000/svg" xmlns:xlink="http://www.w3.org/1999/xlink" x="0px" y="0px"
	 viewBox="0 0 725.59 309.94" style="enable-background:new 0 0 685.59 309.94;" xml:space="preserve">
<g>
	<g>
		<path fill="#0D247C" d="M181.61,88.91c-0.02,8.82-3.4,17.85-8.93,25.11l4.07,5.39l-12.03,10.16l-3.51-5.12
			c-3.93,2.37-8.18,4-12.66,4.63c-16.5,2.32-27.85-8.01-27.83-23.49c0.03-18.76,14.24-37.53,33.07-40.17
			C170.29,63.1,181.64,73.44,181.61,88.91z M161.57,100.63c0.81-2.27,1.21-4.66,1.21-6.91c0.01-6.74-3.58-11.25-10.31-10.31
			c-8.01,1.13-13.07,10.14-13.09,18.09c-0.01,6.74,3.58,11.25,10.31,10.31c0.32-0.05,0.64-0.09,0.96-0.14l-5.11-6.71l12.03-10.16
			L161.57,100.63"/>
		<polygon fill="#0D247C" points="273.14,49.86 257.97,112.5 239.23,115.13 254.4,52.49 		"/>
		<path fill="#0D247C" d="M248.62,53.3l-8.96,36.87c-2.02,8.32-4.91,14.61-8.84,19.39c-5.3,6.45-13.31,9.82-22.2,11.07
			c-15.78,2.22-24.26-4.72-24.23-18.38c0.01-3.11,0.41-6.54,1.22-9.94l7.59-31.23l19.06-2.68l-7.91,32.57
			c-0.4,1.79-0.65,3.46-0.65,4.85c-0.01,5.01,2.71,7.23,7.68,6.53c2.32-0.33,4.49-1.5,6.01-3.35c1.69-2.05,2.81-4.54,4.02-9.38
			l8.15-33.65L248.62,53.3z"/>
		<path fill="#0D247C" d="M398.34,31.83l8.38,59.76l-19.95,2.8l-0.95-7.99l-19.63,2.76l-4.89,8.81l-20.43,2.87l38.88-66.4L398.34,31.83
			z M374.56,73.64l10.25-1.44l-1.49-14.48L374.56,73.64"/>
		<polygon fill="#0D247C" points="354.36,38.44 339.19,101.08 320.45,103.71 325.85,81.26 308.72,83.67 303.31,106.12 284.57,108.76 
			299.74,46.12 318.48,43.49 313.07,65.6 330.21,63.19 335.62,41.08 		"/>
		<polygon fill="#0D247C" points="522.26,14.85 507.09,77.48 488.34,80.12 503.51,17.48 		"/>
		<path fill="#0D247C" d="M485.4,27.81c4.16,3.91,6.07,9.52,6.05,16.87c-0.02,9.08-3.24,17.83-9.26,25.16
			c-6.74,8.21-16.44,13.46-29.42,15.28l-24.34,3.42L443.6,25.9l19.87-2.79C474.36,21.58,481.16,23.82,485.4,27.81z M468.36,60.37
			c2.33-2.83,4.02-7.13,4.02-10.85c0.01-3.29-0.87-5.32-2.31-6.68c-1.76-1.65-4.56-2.38-9.05-1.75l-3.12,0.44l-6.3,26.12l3.28-0.46
			C460.58,66.39,465.47,63.89,468.36,60.37"/>
		<polygon fill="#0D247C" points="578.09,7 573.81,24.72 557.31,27.03 546.42,71.96 527.67,74.59 538.57,29.67 522.07,31.99 
			526.34,14.27 		"/>
		<polygon fill="#0D247C" points="34.11,171.82 23.29,216.55 48.85,212.95 44.49,230.85 0.19,237.08 15.36,174.45 		"/>
		<path fill="#0D247C" d="M102.04,161.84l8.38,59.75l-19.95,2.8l-0.95-7.99l-19.63,2.76l-4.9,8.81l-20.43,2.87l38.88-66.39
			L102.04,161.84z M78.25,203.64l10.25-1.44l-1.49-14.48L78.25,203.64"/>
		<path fill="#0D247C" d="M242.21,142.14l8.38,59.75l-19.95,2.8l-0.95-7.99l-19.62,2.76l-4.9,8.81l-20.43,2.87l38.88-66.39
			L242.21,142.14z M218.44,183.94l10.25-1.44l-1.49-14.48L218.44,183.94"/>
		<path fill="#0D247C" d="M193.48,163.68c-0.01,7.35-4.59,14.13-13.16,17.75c5.28,0.73,9.11,4.42,9.1,10.64
			c-0.02,10.2-7.56,19.47-26.78,22.17l-30.52,4.29l15.17-62.63l24.83-3.49C189.34,150,193.49,156.24,193.48,163.68z M163.23,198.87
			c4.57-0.64,7.29-3.19,7.3-6.21c0-2.59-2-3.53-6-2.97l-8.09,1.14l-2.26,9.32L163.23,198.87 M168.24,176.73
			c4.81-0.68,6.97-3.31,6.98-5.91c0-2.51-1.76-3.3-5.76-2.73l-7.77,1.09l-2.1,8.77L168.24,176.73"/>
		<path fill="#0D247C" d="M314.03,151.58c-0.02,9.42-4.6,18.19-15.66,23.46l7.73,19.05l-20.19,2.84l-6.22-16.41l-4.65,0.65l-4.35,17.9
			l-18.74,2.63l15.17-62.63l21.86-3.07c10.33-1.45,16.9,0.05,20.65,3.58C312.76,142.51,314.04,146.82,314.03,151.58z M285.41,165.28
			c6.25-0.88,9.54-4.45,9.55-8.26c0-1.21-0.4-2.28-1.2-3.03c-1.04-0.98-2.88-1.32-5.52-0.95l-6.65,0.93l-2.99,12.26L285.41,165.28"
			/>
		<path fill="#0D247C" d="M370.43,138.81c-0.01,7.35-4.59,14.13-13.17,17.75c5.28,0.73,9.12,4.42,9.11,10.64
			c-0.02,10.2-7.56,19.47-26.79,22.18l-30.51,4.29l15.17-62.63l24.82-3.49C366.29,125.13,370.44,131.38,370.43,138.81z
			 M340.17,174.01c4.57-0.64,7.29-3.19,7.3-6.21c0-2.59-2-3.53-6-2.97l-8.09,1.14l-2.26,9.32L340.17,174.01 M345.18,151.87
			c4.81-0.68,6.97-3.31,6.98-5.91c0-2.51-1.76-3.3-5.76-2.73l-7.77,1.09l-2.1,8.77L345.18,151.87"/>
		<path fill="#0D247C" d="M419.16,117.27l8.38,59.75l-19.95,2.8l-0.95-7.99l-19.63,2.76l-4.9,8.81l-20.42,2.87l38.88-66.39
			L419.16,117.27z M395.38,159.07l10.25-1.44l-1.49-14.48L395.38,159.07"/>
		<polygon fill="#0D247C" points="575.92,95.67 571.65,113.38 555.15,115.7 544.25,160.62 525.51,163.25 536.4,118.34 519.9,120.66 
			524.18,102.94 		"/>
		<polygon fill="#0D247C" points="520.09,103.52 504.92,166.14 486.18,168.78 501.35,106.15 		"/>
		<path fill="#0D247C" d="M490.98,126.71c-0.02,9.42-4.6,18.19-15.66,23.46l7.73,19.05l-20.19,2.84l-6.22-16.41l-4.65,0.65l-4.36,17.9
			l-18.74,2.63l15.16-62.63l21.87-3.07c10.33-1.45,16.9,0.05,20.65,3.58C489.71,117.64,490.99,121.95,490.98,126.71z M462.36,140.41
			c6.25-0.88,9.54-4.45,9.55-8.26c0-1.21-0.4-2.28-1.2-3.03c-1.04-0.98-2.88-1.32-5.52-0.95l-6.65,0.93l-2.99,12.26L462.36,140.41"
			/>
		<path fill="#0D247C" d="M617.9,89.34l8.38,59.75l-19.95,2.8l-0.95-7.99l-19.63,2.76l-4.9,8.81l-20.43,2.87l38.88-66.39L617.9,89.34z
			 M594.12,131.14l10.25-1.44l-1.49-14.48L594.12,131.14"/>
		<polygon fill="#0D247C" points="692.4,79.3 688.12,97.01 671.62,99.33 660.72,144.25 641.98,146.88 652.87,101.97 636.37,104.29 
			640.65,86.57 		"/>
		<polygon fill="#0D247C" points="188.82,238.43 173.65,301.06 154.99,303.69 162.49,272.64 144.19,296.73 143.87,296.78 
			136.38,276.31 128.87,307.36 110.53,309.94 125.7,247.3 144.21,244.7 150.9,265.02 168.24,241.32 		"/>
		<path fill="#0D247C" d="M268.13,226.07c10.01-1.41,18.89,0.8,24.97,5.57l-10.76,15.34c-4.24-3.12-10.23-5.3-16.16-4.47
			c-2.4,0.34-4.09,1.27-4.09,3c0,1.82,1.2,1.99,8.96,4.01c9.52,2.47,15.6,5.93,15.58,15.18c-0.02,12.19-9.33,23.01-25.43,25.27
			c-11.13,1.56-20.82-1.4-27.62-7.1l10.76-15.34c6.4,4.89,12.96,6.74,18.89,5.9c2.4-0.34,4.09-1.53,4.09-3.25
			c0-1.9-1.04-2.36-9.2-4.5c-10.41-2.69-15.28-5.98-15.27-14.88C242.88,239.13,252.83,228.22,268.13,226.07z"/>
		<polygon fill="#0D247C" points="240.52,216.04 224.32,229.98 211.18,231.83 223.07,213.56 		"/>
		<polygon fill="#0D247C" points="238.54,248.04 209.14,252.17 207.61,258.52 235,254.67 231.37,269.79 203.98,273.64 202.28,280.45 
			232.08,276.26 227.96,293.43 179.74,300.21 194.91,237.57 242.73,230.85 		"/>
		<path fill="#0D247C" d="M423.59,211.92c3.12,2.93,4.39,7.25,4.38,12c-0.02,9.42-4.6,18.19-15.66,23.46l7.19,17.73l-0.9,1.53
			l-18.75,2.64l-6.22-16.41l-4.65,0.65l-4.36,17.9l-18.74,2.63l15.16-62.64l21.87-3.07C413.27,206.88,419.83,208.38,423.59,211.92z
			 M399.36,237.62c6.25-0.88,9.54-4.45,9.55-8.26c0-1.21-0.4-2.28-1.2-3.03c-1.04-0.98-2.88-1.32-5.52-0.95l-6.65,0.93l-2.99,12.26
			L399.36,237.62"/>
		<path fill="#0D247C" d="M348.95,214.63c10.57-1.49,19.62,2.17,23.45,6.73l-11.72,14.61c-3.2-2.75-8-4.32-12.96-3.62
			c-10.65,1.5-17,10.25-17.01,20.02c-0.01,7.52,5.02,10.53,10.87,9.71c2-0.28,3.61-0.85,4.88-1.64l1.85-6.74l-9.2,1.29l3.07-13.4
			l26.99-3.79l-8.07,31.99c-5.53,4.32-13.46,8.12-21.55,9.25c-13.94,1.96-27.7-4.06-27.67-23.08
			C311.92,236.17,326.37,217.8,348.95,214.63z"/>
		<path fill="#0D247C" d="M476.07,197.62l8.38,59.76l-19.95,2.8l-0.95-7.99l-19.63,2.76l-4.9,8.81l-18.98,2.67l-1.43,0.2l0.9-1.53
			l37.98-64.87L476.07,197.62z M452.29,239.43l10.25-1.44l-1.49-14.48L452.29,239.43"/>
		<polygon fill="#0D247C" points="554.62,247.52 558.57,231.41 577.16,228.8 573.2,244.91 		"/>
		<polygon fill="#0D247C" points="557.06,186.68 541.88,249.31 525.22,251.65 511.98,223.44 504.4,254.58 485.82,257.19 500.98,194.56 
			518.53,192.09 531.21,219.18 538.47,189.29 		"/>
		<path fill="#0D247C" d="M578.61,182.7c11.21-1.58,18.41,3.9,18.39,13.23c-0.02,9.34-5.56,18.24-19.82,22.75l-2.5,7.18l-11.05,1.55
			l1.23-15.21l1.04-1.1c8.81-2.19,13.06-4.77,13.07-8.15c0-1.9-1.28-3.02-4-2.64c-2.88,0.41-6.09,1.89-10.26,5.68l-6.06-13.76
			C564.02,187.25,570.92,183.78,578.61,182.7z"/>
	</g>
	<g>
		<g>
			<path fill="#CF1295" d="M174.61,81.91c-0.02,8.82-3.4,17.85-8.93,25.11l4.07,5.39l-12.03,10.16l-3.51-5.12
				c-3.93,2.37-8.18,4-12.66,4.63c-16.5,2.32-27.85-8.01-27.83-23.49c0.03-18.76,14.24-37.53,33.07-40.17
				C163.29,56.1,174.64,66.44,174.61,81.91z M154.57,93.63c0.81-2.27,1.21-4.66,1.21-6.91c0.01-6.74-3.58-11.25-10.31-10.31
				c-8.01,1.13-13.07,10.14-13.09,18.09c-0.01,6.74,3.58,11.25,10.31,10.31c0.32-0.05,0.64-0.09,0.96-0.14l-5.11-6.71l12.03-10.16
				L154.57,93.63"/>
		</g>
		<g>
			<polygon fill="#CF1295" points="266.14,42.86 250.97,105.5 232.23,108.13 247.4,45.49 			"/>
		</g>
		<g>
			<path fill="#CF1295" d="M241.62,46.3l-8.96,36.87c-2.02,8.32-4.91,14.61-8.84,19.39c-5.3,6.45-13.31,9.82-22.2,11.07
				c-15.78,2.22-24.26-4.72-24.23-18.38c0.01-3.11,0.41-6.54,1.22-9.94l7.59-31.23l19.06-2.68l-7.91,32.57
				c-0.4,1.79-0.65,3.46-0.65,4.85c-0.01,5.01,2.71,7.23,7.68,6.53c2.32-0.33,4.49-1.5,6.01-3.35c1.69-2.05,2.81-4.54,4.02-9.38
				l8.15-33.65L241.62,46.3z"/>
		</g>
		<g>
			<path fill="#CF1295" d="M391.34,24.83l8.38,59.76l-19.95,2.8l-0.95-7.99l-19.63,2.76l-4.89,8.81l-20.43,2.87l38.88-66.4
				L391.34,24.83z M367.56,66.64l10.25-1.44l-1.49-14.48L367.56,66.64"/>
		</g>
		<g>
			<polygon fill="#CF1295" points="347.36,31.44 332.19,94.08 313.45,96.71 318.85,74.26 301.72,76.67 296.31,99.12 277.57,101.76 
				292.74,39.12 311.48,36.49 306.07,58.6 323.21,56.19 328.62,34.08 			"/>
		</g>
		<g>
			<polygon fill="#CF1295" points="515.26,7.85 500.09,70.48 481.34,73.12 496.51,10.48 			"/>
		</g>
		<g>
			<path fill="#CF1295" d="M478.4,20.81c4.16,3.91,6.07,9.52,6.05,16.87c-0.02,9.08-3.24,17.83-9.26,25.16
				c-6.74,8.21-16.44,13.46-29.42,15.28l-24.34,3.42L436.6,18.9l19.87-2.79C467.36,14.58,474.16,16.82,478.4,20.81z M461.36,53.37
				c2.33-2.83,4.02-7.13,4.02-10.85c0.01-3.29-0.87-5.32-2.31-6.68c-1.76-1.65-4.56-2.38-9.05-1.75l-3.12,0.44l-6.3,26.12l3.28-0.46
				C453.58,59.39,458.47,56.89,461.36,53.37"/>
		</g>
		<g>
			<polygon fill="#CF1295" points="571.09,0 566.81,17.72 550.31,20.03 539.42,64.96 520.67,67.59 531.57,22.67 515.07,24.99 
				519.34,7.27 			"/>
		</g>
		<g>
			<polygon fill="#CF1295" points="27.11,164.82 16.29,209.55 41.85,205.95 37.49,223.85 -6.81,230.08 8.36,167.45 			"/>
		</g>
		<g>
			<path fill="#CF1295" d="M95.04,154.84l8.38,59.75l-19.95,2.8l-0.95-7.99l-19.63,2.76l-4.9,8.81l-20.43,2.87l38.88-66.39
				L95.04,154.84z M71.25,196.64l10.25-1.44l-1.49-14.48L71.25,196.64"/>
		</g>
		<g>
			<path fill="#CF1295" d="M235.21,135.14l8.38,59.75l-19.95,2.8l-0.95-7.99l-19.62,2.76l-4.9,8.81l-20.43,2.87l38.88-66.39
				L235.21,135.14z M211.44,176.94l10.25-1.44l-1.49-14.48L211.44,176.94"/>
		</g>
		<g>
			<path fill="#CF1295" d="M186.48,156.68c-0.01,7.35-4.59,14.13-13.16,17.75c5.28,0.73,9.11,4.42,9.1,10.64
				c-0.02,10.2-7.56,19.47-26.78,22.17l-30.52,4.29l15.17-62.63l24.83-3.49C182.34,143,186.49,149.24,186.48,156.68z M156.23,191.87
				c4.57-0.64,7.29-3.19,7.3-6.21c0-2.59-2-3.53-6-2.97l-8.09,1.14l-2.26,9.32L156.23,191.87 M161.24,169.73
				c4.81-0.68,6.97-3.31,6.98-5.91c0-2.51-1.76-3.3-5.76-2.73l-7.77,1.09l-2.1,8.77L161.24,169.73"/>
		</g>
		<g>
			<path fill="#CF1295" d="M307.03,144.58c-0.02,9.42-4.6,18.19-15.66,23.46l7.73,19.05l-20.19,2.84l-6.22-16.41l-4.65,0.65l-4.35,17.9
				l-18.74,2.63l15.17-62.63l21.86-3.07c10.33-1.45,16.9,0.05,20.65,3.58C305.76,135.51,307.04,139.82,307.03,144.58z
				 M278.41,158.28c6.25-0.88,9.54-4.45,9.55-8.26c0-1.21-0.4-2.28-1.2-3.03c-1.04-0.98-2.88-1.32-5.52-0.95l-6.65,0.93l-2.99,12.26
				L278.41,158.28"/>
		</g>
		<g>
			<path fill="#CF1295" d="M363.43,131.81c-0.01,7.35-4.59,14.13-13.17,17.75c5.28,0.73,9.12,4.42,9.11,10.64
				c-0.02,10.2-7.56,19.47-26.79,22.18l-30.51,4.29l15.17-62.63l24.82-3.49C359.29,118.13,363.44,124.38,363.43,131.81z
				 M333.17,167.01c4.57-0.64,7.29-3.19,7.3-6.21c0-2.59-2-3.53-6-2.97l-8.09,1.14l-2.26,9.32L333.17,167.01 M338.18,144.87
				c4.81-0.68,6.97-3.31,6.98-5.91c0-2.51-1.76-3.3-5.76-2.73l-7.77,1.09l-2.1,8.77L338.18,144.87"/>
		</g>
		<g>
			<path fill="#CF1295" d="M412.16,110.27l8.38,59.75l-19.95,2.8l-0.95-7.99l-19.63,2.76l-4.9,8.81l-20.42,2.87l38.88-66.39
				L412.16,110.27z M388.38,152.07l10.25-1.44l-1.49-14.48L388.38,152.07"/>
		</g>
		<g>
			<polygon fill="#CF1295" points="568.92,88.67 564.65,106.38 548.15,108.7 537.25,153.62 518.51,156.25 529.4,111.34 512.9,113.66 
				517.18,95.94 			"/>
		</g>
		<g>
			<polygon fill="#CF1295" points="513.09,96.52 497.92,159.14 479.18,161.78 494.35,99.15 			"/>
		</g>
		<g>
			<path fill="#CF1295" d="M483.98,119.71c-0.02,9.42-4.6,18.19-15.66,23.46l7.73,19.05l-20.19,2.84l-6.22-16.41l-4.65,0.65l-4.36,17.9
				l-18.74,2.63l15.16-62.63l21.87-3.07c10.33-1.45,16.9,0.05,20.65,3.58C482.71,110.64,483.99,114.95,483.98,119.71z
				 M455.36,133.41c6.25-0.88,9.54-4.45,9.55-8.26c0-1.21-0.4-2.28-1.2-3.03c-1.04-0.98-2.88-1.32-5.52-0.95l-6.65,0.93l-2.99,12.26
				L455.36,133.41"/>
		</g>
		<g>
			<path fill="#CF1295" d="M610.9,82.34l8.38,59.75l-19.95,2.8l-0.95-7.99l-19.63,2.76l-4.9,8.81l-20.43,2.87l38.88-66.39L610.9,82.34z
				 M587.12,124.14l10.25-1.44l-1.49-14.48L587.12,124.14"/>
		</g>
		<g>
			<polygon fill="#CF1295" points="685.4,72.3 681.12,90.01 664.62,92.33 653.72,137.25 634.98,139.88 645.87,94.97 629.37,97.29 
				633.65,79.57 			"/>
		</g>
		<g>
			<polygon fill="#CF1295" points="181.82,231.43 166.65,294.06 147.99,296.69 155.49,265.64 137.19,289.73 136.87,289.78 
				129.38,269.31 121.87,300.36 103.53,302.94 118.7,240.3 137.21,237.7 143.9,258.02 161.24,234.32 			"/>
		</g>
		<g>
			<path fill="#CF1295" d="M261.13,219.07c10.01-1.41,18.89,0.8,24.97,5.57l-10.76,15.34c-4.24-3.12-10.23-5.3-16.16-4.47
				c-2.4,0.34-4.09,1.27-4.09,3c0,1.82,1.2,1.99,8.96,4.01c9.52,2.47,15.6,5.93,15.58,15.18c-0.02,12.19-9.33,23.01-25.43,25.27
				c-11.13,1.56-20.82-1.4-27.62-7.1l10.76-15.34c6.4,4.89,12.96,6.74,18.89,5.9c2.4-0.34,4.09-1.53,4.09-3.25
				c0-1.9-1.04-2.36-9.2-4.5c-10.41-2.69-15.28-5.98-15.27-14.88C235.88,232.13,245.83,221.22,261.13,219.07z"/>
		</g>
		<g>
			<polygon fill="#CF1295" points="233.52,209.04 217.32,222.98 204.18,224.83 216.07,206.56 			"/>
		</g>
		<g>
			<polygon fill="#CF1295" points="231.54,241.04 202.14,245.17 200.61,251.52 228,247.67 224.37,262.79 196.98,266.64 195.28,273.45 
				225.08,269.26 220.96,286.43 172.74,293.21 187.91,230.57 235.73,223.85 			"/>
		</g>
		<g>
			<path fill="#CF1295" d="M416.59,204.92c3.12,2.93,4.39,7.25,4.38,12c-0.02,9.42-4.6,18.19-15.66,23.46l7.19,17.73l-0.9,1.53
				l-18.75,2.64l-6.22-16.41l-4.65,0.65l-4.36,17.9l-18.74,2.63l15.16-62.64l21.87-3.07C406.27,199.88,412.83,201.38,416.59,204.92z
				 M392.36,230.62c6.25-0.88,9.54-4.45,9.55-8.26c0-1.21-0.4-2.28-1.2-3.03c-1.04-0.98-2.88-1.32-5.52-0.95l-6.65,0.93l-2.99,12.26
				L392.36,230.62"/>
		</g>
		<g>
			<path fill="#CF1295" d="M341.95,207.63c10.57-1.49,19.62,2.17,23.45,6.73l-11.72,14.61c-3.2-2.75-8-4.32-12.96-3.62
				c-10.65,1.5-17,10.25-17.01,20.02c-0.01,7.52,5.02,10.53,10.87,9.71c2-0.28,3.61-0.85,4.88-1.64l1.85-6.74l-9.2,1.29l3.07-13.4
				l26.99-3.79l-8.07,31.99c-5.53,4.32-13.46,8.12-21.55,9.25c-13.94,1.96-27.7-4.06-27.67-23.08
				C304.92,229.17,319.37,210.8,341.95,207.63z"/>
		</g>
		<g>
			<path fill="#CF1295" d="M469.07,190.62l8.38,59.76l-19.95,2.8l-0.95-7.99l-19.63,2.76l-4.9,8.81l-18.98,2.67l-1.43,0.2l0.9-1.53
				l37.98-64.87L469.07,190.62z M445.29,232.43l10.25-1.44l-1.49-14.48L445.29,232.43"/>
		</g>
		<g class="st2">
			<g>
				<polygon fill="#CF1295" points="547.62,240.52 551.57,224.41 570.16,221.8 566.2,237.91 				"/>
			</g>
			<g>
				<polygon fill="#CF1295" points="550.06,179.68 534.88,242.31 518.22,244.65 504.98,216.44 497.4,247.58 478.82,250.19 
					493.98,187.56 511.53,185.09 524.21,212.18 531.47,182.29 				"/>
			</g>
		</g>
		<g>
			<path fill="#CF1295" d="M571.61,175.7c11.21-1.58,18.41,3.9,18.39,13.23c-0.02,9.34-5.56,18.24-19.82,22.75l-2.5,7.18l-11.05,1.55
				l1.23-15.21l1.04-1.1c8.81-2.19,13.06-4.77,13.07-8.15c0-1.9-1.28-3.02-4-2.64c-2.88,0.41-6.09,1.89-10.26,5.68l-6.06-13.76
				C557.02,180.25,563.92,176.78,571.61,175.7z"/>
		</g>
	</g>
</g>
</svg>
